# xmcd
#
# Track frame offsets:
#	150
#	18000
#	50735
#
# Disc length: 1124 seconds
#
# Revision: 10
# Processed by: cddbd v1.5.2PL0 Copyright (c) Steve Scherf et al.
# Submitted via: audiograbber 1.83.01
#
DISCID=1b046203
DTITLE=Das Modul - Frühlingsgefühle
DYEAR=1996
DGENRE=Techno
TTITLE0=Frühlingsgefühle (Radio Edit)
TTITLE1=Frühlingsgefühle (Extended Version)
TTITLE2=Frühlingsgefühle (Jules Vernes Remix)
EXTD=
EXTT0=
EXTT1=
EXTT2=
PLAYORDER=
